# xmcd
#
# Track frame offsets:
#	150
#	16590
#	30557
#	48640
#	62720
#	78907
#	92447
#	107992
#	122117
#	137460
#	151035
#	166580
#	179137
#	194815
#	209502
#	221342
#	237520
#	253355
#	271642
#	289682
#
# Disc length: 4039 seconds
#
# Revision: 1
# Processed by: cddbd v1.4PL0 Copyright (c) Steve Scherf et al.
# Submitted via: audiograbber 1.80
#
DISCID=190fc514
DTITLE=Various Artist - Hott Country 013
DYEAR=1900
DGENRE=
TTITLE0=Reba McEntire - How Was I To Know
TTITLE1=Alan Jackson - Everything I Love
TTITLE2=Trace Adkins - No Thinkin'  Thing
TTITLE3=Terri Clark - Emotional  Girl
TTITLE4=Ricochet - Ease My Troubled Mine
TTITLE5=Rick Tippe - You're All I Need
TTITLE6=Tracy Byrd - Don't Take Her She's All I Got
TTITLE7=Martina McBride - Cry On The Shoulder Of The Road
TTITLE8=Lorrie Morgan - Good As I Was To  You
TTITLE9=David Lee Murphy - Genuine Rednecks
TTITLE10=Big House - Cold Outside
TTITLE11=Regina Regina - MoreThan I Wanted To Know
TTITLE12=Mary Chapin Carpenter - I Want To Be Your Girlfriend
TTITLE13=Noel Haggard - Once You Learn
TTITLE14=Gary Allan - Forever And A Day
TTITLE15=Larry Stewart - Always A Woman
TTITLE16=Duane Steele - She's Tough
TTITLE17=Rankin  Family - Roving Gypsy Boy
TTITLE18=Chris Cummings - Somewhere Inside
TTITLE19=Mark Chestnutt - Let It Rain
EXTD=
EXTT0=
EXTT1=
EXTT2=
EXTT3=
EXTT4=
EXTT5=
EXTT6=
EXTT7=
EXTT8=
EXTT9=
EXTT10=
EXTT11=
EXTT12=
EXTT13=
EXTT14=
EXTT15=
EXTT16=
EXTT17=
EXTT18=
EXTT19=
PLAYORDER=
